Coordinates
version=1
nRows=17
nColumns=36
inDegrees=yes

Units are S.I. units (second, meters, Newtons, ...)
If the header above contains a line with 'inDegrees', this indicates whether rotational values are in degrees (yes) or radians (no).

endheader
time	pelvis_tilt	pelvis_list	pelvis_rotation	pelvis_tx	pelvis_ty	pelvis_tz	hip_flexion_r	hip_adduction_r	hip_rotation_r	knee_angle_r	knee_angle_r_beta	ankle_angle_r	subtalar_angle_r	mtp_angle_r	hip_flexion_l	hip_adduction_l	hip_rotation_l	knee_angle_l	knee_angle_l_beta	ankle_angle_l	subtalar_angle_l	mtp_angle_l	lumbar_extension	lumbar_bending	lumbar_rotation	arm_flex_r	arm_add_r	arm_rot_r	elbow_flex_r	pro_sup_r	arm_flex_l	arm_add_l	arm_rot_l	elbow_flex_l	pro_sup_l
      1.29000000	     -9.73231663	      2.56137364	     10.40802238	     -0.35267758	      0.96035122	     -0.59191636	     36.98655736	    -10.33520864	     -1.08231511	     23.89910934	      0.41711815	    -36.72076236	     -7.19428685	     -6.14965945	     40.67148617	     -1.72522897	      2.66676302	     20.34962511	      0.35516796	    -28.97518688	      8.07466033	     -6.14965945	    -13.82562530	      5.10492742	     -7.09145558	     23.63127638	    -48.14392952	      4.18223517	     93.61753602	    103.56300179	     37.09753253	    -49.39484257	      8.95432438	     89.56304273	     98.49255721
      1.30000000	     -9.20647895	      2.51386868	     10.01366958	     -0.34151765	      0.93460416	     -0.59105141	     37.49321517	     -9.86415068	     -0.22963829	     27.02226578	      0.47162751	    -33.59054424	     -7.96660932	     -6.47360001	     41.62343076	     -2.18949021	      2.24983330	     23.10362053	      0.40323425	    -29.82221330	      8.81194038	     -6.47360001	    -14.07035723	      5.31010466	     -6.60664157	     24.83099061	    -48.15277263	      5.38959510	     92.97774045	    105.06530477	     37.16151532	    -50.33866827	      8.53646057	     90.01842546	     99.73078605
      1.31000000	     -8.62713681	      2.59797896	      9.62419421	     -0.33072206	      0.90801791	     -0.58990770	     38.32646685	     -9.58092709	      0.12057410	     33.21554083	      0.57972055	    -20.61547168	     -9.10552438	     -6.64131446	     42.69240849	     -2.51388606	      1.95419826	     26.52065302	      0.46287271	    -29.99835415	      8.83952514	     -6.64131446	    -14.42541915	      5.28565502	     -5.83466085	     25.61559528	    -48.25193390	      6.37962752	     92.74425468	    102.27197242	     38.33376927	    -51.24335316	      9.56964917	     90.34699170	     97.30569595
      1.32000000	     -7.95037189	      2.80938543	      9.35502986	     -0.32075273	      0.88104733	     -0.58906459	     39.27293710	     -9.81934099	     -0.33425073	     40.62615966	      0.70906025	     -2.64032477	     -7.45012602	     -6.82261489	     43.96342635	     -2.58667689	      1.91036762	     31.78597383	      0.55476990	    -24.56270988	      7.75370736	     -6.82261489	    -14.99341054	      5.12467984	     -5.26468753	     26.99378313	    -48.19104326	      7.62394748	     92.15540610	     99.12391133	     40.00551779	    -52.24311036	     10.97657408	     90.51580660	     94.43148140
      1.33000000	     -7.35752661	      2.50830529	      8.85560210	     -0.31274231	      0.85446694	     -0.58853375	     40.79346967	     -9.63637330	     -0.82753752	     47.11387351	      0.82229222	     10.07582410	     -5.39256025	     -6.97025267	     45.88464445	     -3.04863130	      2.20513650	     39.35162899	      0.68681549	    -12.12457487	      5.71515076	     -6.97025267	    -15.73046741	      5.63250897	     -4.26246348	     28.87604311	    -48.33917169	      9.04470074	     91.35670063	     97.53266847	     41.78538591	    -52.62418637	     11.93116004	     90.27111248	     92.64008239
      1.34000000	     -7.24754320	      1.71530017	      7.73827713	     -0.30732083	      0.82898431	     -0.58792880	     44.05679537	     -8.41876538	     -0.23141166	     53.32341270	      0.93066912	     14.61531936	     -6.80127790	     -7.05884954	     48.62739831	     -3.88239305	      2.66326134	     47.39968885	      0.82728063	      0.25068775	      1.55506122	     -7.05884954	    -16.48918235	      6.65213482	     -2.37422407	     31.01917583	    -48.76162383	     10.18757746	     90.74428391	     94.92721403	     43.28860472	    -52.28388005	     12.15598068	     90.15485031	     90.32709604
      1.35000000	     -7.62483617	      0.92982104	      6.50171084	     -0.30331756	      0.80520975	     -0.58822120	     49.03489833	     -7.40952819	      0.35643822	     60.73382348	      1.06000519	     15.94787479	     -6.73108687	     -7.12819600	     51.83958184	     -4.63318009	      3.17272962	     54.34942468	      0.94857641	      9.76183093	      0.49589038	     -7.12819600	    -16.98269515	      7.78184009	     -1.37707566	     35.70865852	    -48.39313523	     13.74539336	     87.57317365	    104.94134843	     42.83065414	    -52.37260137	      9.95877641	     89.19468676	     97.40650082
      1.36000000	     -8.71281317	      0.66509125	      5.68461148	     -0.29946767	      0.78292004	     -0.59046573	     54.93447323	     -7.49254265	      0.87973824	     68.45733505	      1.19480589	     15.82621752	     -6.18852257	     -7.13421031	     55.39304350	     -4.18407734	      4.34554142	     59.67368283	      1.04150224	     14.17897607	     -2.63089907	     -7.13421031	    -16.99455355	      8.35536863	      0.16310826	     37.32771444	    -48.53068419	     14.22323301	     86.43673917	    104.86216808	     43.45932584	    -51.18486332	      9.52199326	     88.72428542	     97.34502778
      1.37000000	     -9.78446640	      0.29572663	      5.23988952	     -0.29527533	      0.76301335	     -0.59341612	     59.81214562	     -7.98223108	      0.82482683	     74.66334277	      1.30312116	     15.83840503	     -4.75735436	     -7.14011105	     59.05632351	     -3.71729794	      5.77627895	     64.62930771	      1.12799421	     16.41403977	     -4.60018435	     -7.14011105	    -17.03743914	      9.13448483	      1.17211298	     38.92341203	    -48.29716380	     14.83852921	     84.85030001	    104.78128768	     43.61000999	    -49.88775413	      8.89789497	     88.05991259	     97.27387178
      1.38000000	    -10.29835107	     -0.27072204	      4.60197747	     -0.29092767	      0.74640160	     -0.59456165	     62.88771330	     -7.76182978	      0.72271945	     78.97764310	      1.37841991	     17.02317403	     -2.76839821	     -7.17552824	     62.39520375	     -4.08644425	      6.81847118	     69.72140922	      1.21686815	     17.42689098	     -5.08340854	     -7.17552824	    -17.95819008	     10.06649567	      0.85270323	     43.14700009	    -46.40532041	     18.45453813	     81.55538826	    105.11243285	     41.23750457	    -50.05212536	      5.53079959	     88.33727466	     97.84105264
      1.39000000	    -10.26409605	     -0.57531826	      3.56350075	     -0.28668742	      0.73290676	     -0.59296574	     64.68773191	     -6.57659530	      1.15061313	     82.02977967	      1.43168974	     17.39279409	     -3.44245657	     -7.18074353	     64.93375550	     -5.16923297	      7.02233031	     74.47561652	      1.29984472	     17.63894308	     -5.22244129	     -7.18074353	    -19.88331233	     10.18689783	      2.16115854	     44.40959466	    -44.96694301	     18.08518174	     79.69112692	    104.94430796	     41.69430529	    -49.16457778	      5.01780596	     87.51307161	     97.78895858
      1.40000000	     -9.87396848	     -0.46063326	      2.62641839	     -0.28292386	      0.72133385	     -0.59077639	     65.80515568	     -5.54495370	      1.77604188	     84.69195585	      1.47815348	     17.92224070	     -4.62570505	     -7.19498150	     66.49348162	     -6.16335472	      6.77727088	     78.35518229	      1.36755592	     18.64246418	     -4.31808183	     -7.19498150	    -22.17438569	      9.68771158	      2.83867804	     46.31077934	    -42.99531133	     18.60272273	     77.00497251	    105.02833047	     42.39469450	    -48.88073931	      5.03990639	     86.25731515	     98.09441201
      1.41000000	     -9.69436611	     -0.11424309	      1.89418499	     -0.27967049	      0.71052056	     -0.58904893	     66.96245689	     -5.00988476	      2.35306665	     87.16108090	      1.52124784	     19.12727106	     -5.07871014	     -7.20307812	     67.68008146	     -6.96130903	      6.11598445	     81.23385388	      1.41779821	     19.59427637	     -4.19990904	     -7.20307812	    -24.10533803	      8.90287886	      3.31086447	     47.69920131	    -41.04195320	     18.58466268	     74.37145780	    105.00909716	     43.41567657	    -48.35624761	      5.61722210	     84.58150893	     98.23708994
      1.42000000	     -9.82544197	      0.20881143	      1.24260939	     -0.27689930	      0.70020346	     -0.58777953	     68.27574956	     -4.70097665	      2.82804779	     89.33027658	      1.55910745	     20.72998855	     -4.64082071	     -7.27458831	     68.83853777	     -7.80441253	      5.33662418	     83.47567599	      1.45692539	     20.94022191	     -3.81892986	     -7.27458831	    -25.50982491	      8.16528183	      3.88483468	     48.80328095	    -39.55531990	     18.65943708	     71.65362234	    107.13880988	     44.90168447	    -47.56978097	      7.09417730	     81.88855384	    101.35729139
      1.43000000	    -10.37843949	      0.42242677	      0.54913906	     -0.27440657	      0.69022037	     -0.58678921	     69.88431860	     -4.24976398	      3.31090306	     91.13013099	      1.59052083	     21.87041527	     -4.78214643	     -7.27732940	     70.25729079	     -8.70326296	      4.70869886	     85.35524629	      1.48973008	     21.99419529	     -4.08062873	     -7.27732940	    -26.42694453	      7.61559886	      4.28319096	     49.74578126	    -37.96785048	     18.75317084	     69.51438422	    106.96958824	     45.43026863	    -46.72754302	      7.67858406	     79.81993742	    101.17921325
      1.44000000	    -10.87883330	      0.71633610	      0.26270550	     -0.27228306	      0.68109523	     -0.58697409	     71.39391908	     -4.39687150	      3.73839851	     92.86207406	      1.62074894	     23.25926578	     -3.60177894	     -7.28546080	     71.46918444	     -8.95550165	      4.46955056	     86.98776829	      1.51822297	     23.55417577	     -3.14454188	     -7.28546080	    -27.17475503	      7.16104872	      4.28068393	     51.12675904	    -36.70611004	     19.96563202	     66.32490098	    107.14236434	     46.60007669	    -46.22822781	      9.87342055	     76.98608478	    101.26326575
      1.45000000	    -11.84678588	      0.75915882	      0.17384077	     -0.27029942	      0.67216277	     -0.58760299	     73.35328137	     -4.51167197	      3.94898359	     94.40162089	      1.64761910	     23.77830514	     -3.25778589	     -7.28878082	     73.22800619	     -9.07665467	      4.53231607	     88.46997547	      1.54409236	     24.64960860	     -3.03776869	     -7.28878082	    -27.49986358	      7.09755323	      4.22042820	     51.75199187	    -35.77730499	     20.42636280	     64.60170431	    107.17611150	     46.81058887	    -45.45228315	     10.69425927	     75.01631750	    101.21883996
